<?xml version="1.0" encoding="utf-8"?>
<!-- Svg Vector Icons : http://www.onlinewebfonts.com/icon -->
<!DOCTYPE svg PUBLIC "-//W3C//DTD SVG 1.1//EN" "http://www.w3.org/Graphics/SVG/1.1/DTD/svg11.dtd">
<svg version="1.1" xmlns="http://www.w3.org/2000/svg" xmlns:xlink="http://www.w3.org/1999/xlink" x="0px" y="0px" viewBox="0 0 1000 1000" enable-background="new 0 0 1000 1000" xml:space="preserve">
<metadata> Svg Vector Icons : http://www.onlinewebfonts.com/icon </metadata>
<g><path d="M990,965.5h-40.8c0-200.1-147-379.8-351.2-420.6l-65.3-12.3l61.3-24.5c85.8-36.8,138.8-114.3,138.8-204.2c0-122.5-106.2-224.6-232.8-224.6c-130.7,0-232.8,102.1-232.8,224.6c0,89.8,53.1,167.4,138.8,204.2l61.3,24.5L402,544.9C197.8,585.8,50.8,765.4,50.8,965.5H10c0-204.2,138.8-383.8,334.8-449.2c-73.5-49-118.4-130.7-118.4-216.4c0-147,122.5-265.4,273.6-265.4s273.6,118.4,273.6,265.4c0,85.7-44.9,167.4-118.4,216.4C851.2,581.7,990,761.3,990,965.5z"/></g>
</svg>