<?xml version="1.0" encoding="utf-8"?>
<!-- Svg Vector Icons : http://www.onlinewebfonts.com/icon -->
<!DOCTYPE svg PUBLIC "-//W3C//DTD SVG 1.1//EN" "http://www.w3.org/Graphics/SVG/1.1/DTD/svg11.dtd">
<svg version="1.1" xmlns="http://www.w3.org/2000/svg" xmlns:xlink="http://www.w3.org/1999/xlink" x="0px" y="0px" viewBox="0 0 1000 1000" enable-background="new 0 0 1000 1000" xml:space="preserve">
<metadata> Svg Vector Icons : http://www.onlinewebfonts.com/icon </metadata>
<g><path d="M861.8,245.9H696V126.3c0-11.9-7-23.2-19.1-31.1c-10.9-7.1-25-11-39.9-11H363c-14.9,0-29,3.9-39.9,11c-12.1,7.9-19.1,19.3-19.1,31.1v119.6H138.2C67.5,245.9,10,292,10,348.7v464.4c0,56.7,57.5,102.8,128.2,102.8h723.7c70.7,0,128.2-46.1,128.2-102.8V348.7C990,292,932.5,245.9,861.8,245.9L861.8,245.9z M337.7,126.3c0-6.1,10.8-12.9,25.3-12.9H637c14.5,0,25.3,6.8,25.3,12.9v119.6H337.7V126.3L337.7,126.3z M138.2,275.1h723.7c52.1,0,94.5,33,94.5,73.5v139.1H647.1v-44.1c0-23.2-21.3-42.1-47.5-42.1H400.4c-26.2,0-47.5,18.9-47.5,42.1v44.1H43.7V348.7C43.7,308.1,86,275.1,138.2,275.1L138.2,275.1z M613.4,443.7v144.8c0,7.1-6.2,12.9-13.8,12.9H400.4c-7.6,0-13.8-5.8-13.8-12.9V443.7c0-7.1,6.2-12.9,13.8-12.9h199.2C607.2,430.8,613.4,436.6,613.4,443.7L613.4,443.7z M861.8,886.6H138.2c-52.1,0-94.5-33-94.5-73.5V517h309.2v71.5c0,23.2,21.3,42.1,47.5,42.1h199.2c26.2,0,47.5-18.9,47.5-42.1V517h309.2v296.1C956.3,853.6,914,886.6,861.8,886.6L861.8,886.6z"/></g>
</svg>